<svg width="125" height="36" viewBox="0 0 125 36" fill="none" xmlns="http://www.w3.org/2000/svg">
<path fill-rule="evenodd" clip-rule="evenodd" d="M116.528 23.9645L111.516 11.7651H107.549L114.678 28.2655L114.51 28.6021C113.602 30.9209 112.324 32.0299 110.037 31.8952V35.2894C113.905 35.5246 116.629 33.4412 118.243 29.1062L124.7 11.7651H120.832L116.528 23.9645Z" fill="white"/>
<path fill-rule="evenodd" clip-rule="evenodd" d="M100.628 25.9276C98.8489 25.9276 97.3409 25.062 96.4294 23.6911C96.5538 23.3829 96.6637 23.0827 96.7653 22.7951L96.769 22.7835C96.9478 22.2652 97.114 21.7242 97.2638 21.1716C97.5434 20.1366 97.7722 19.0678 97.9438 17.9973C98.05 17.3406 98.1381 16.5532 98.208 15.7138C98.9216 15.3287 99.7405 15.1113 100.628 15.1113C103.532 15.1113 105.723 17.4361 105.723 20.5194C105.723 23.6025 103.532 25.9276 100.628 25.9276ZM94.1161 5.55771C94.1752 5.21128 94.236 4.86329 94.3068 4.52206C94.3431 4.34494 94.4067 4.23561 94.4539 4.17744C94.4539 4.17744 96.1707 9.48506 94.4548 19.8845C93.2173 12.9904 93.7784 7.69422 94.1161 5.55771ZM78.7625 25.9751C75.8729 25.9751 73.6943 23.6614 73.6943 20.5932C73.6943 17.5254 75.8729 15.2116 78.7625 15.2116C81.6696 15.2116 83.8618 17.5254 83.8618 20.5932C83.8618 23.6614 81.6696 25.9751 78.7625 25.9751ZM106.614 14.3292C105.11 12.7025 103.102 11.8067 100.963 11.8067C100.041 11.8067 99.183 11.9557 98.3986 12.2433C98.4186 11.5789 98.4286 10.9464 98.4286 10.3839C98.4241 8.16244 98.2634 7.07121 97.9392 5.07338C97.8639 4.60593 97.7776 4.13641 97.6832 3.67909C97.3201 1.92123 95.9927 0.692871 94.4548 0.692871C93.2891 0.692871 92.2459 1.40028 91.6503 2.50735L91.6512 2.50398C91.6204 2.56344 91.5931 2.63174 91.565 2.69589C91.4778 2.87794 91.4034 3.06855 91.3426 3.26877C90.6608 5.33724 90.5259 8.6556 90.5259 8.6556L90.5286 8.64106C90.4989 9.15992 90.4816 9.71983 90.4801 10.388C90.4803 10.8861 90.489 11.4447 90.5048 12.0272L90.5041 12.0309L90.5048 12.034C90.5589 14.0492 90.7071 16.4028 90.9649 17.9947C91.1365 19.0672 91.3652 20.1356 91.6458 21.1741C91.7947 21.7242 91.9608 22.2652 92.1397 22.7835L92.1442 22.7951C92.225 23.0239 92.3104 23.2602 92.4039 23.5028C92.5228 23.8069 92.6626 24.1011 92.8197 24.3858L92.8324 24.4076C92.2831 25.3352 91.3362 25.9751 90.2215 25.9751C88.5038 25.9751 87.1055 24.2546 87.1055 22.4519L87.0868 21.5385L87.0865 11.9181H83.8612L83.8618 14.447C82.5316 12.7915 80.6708 11.9231 78.4296 11.9231C74.0401 11.9231 70.4688 15.8125 70.4688 20.5932C70.4688 25.3741 74.0401 29.2636 78.4296 29.2636C79.4912 29.2636 80.4597 29.054 81.3347 28.6728L81.3112 28.7011C81.3112 28.7011 83.1878 28.1228 84.8478 25.7271C85.8616 27.7805 87.884 29.4158 90.2215 29.4158C92.0434 29.4158 93.6495 28.5378 94.7616 27.1978L94.8225 27.1386C96.0654 28.2178 97.9883 29.2714 100.764 29.2714C101.191 29.2714 101.641 29.2465 102.109 29.1924C103.814 28.932 105.38 28.0433 106.614 26.7097C108.129 25.0735 108.963 22.8749 108.963 20.5194C108.963 18.1638 108.129 15.9652 106.614 14.3292Z" fill="white"/>
<path fill-rule="evenodd" clip-rule="evenodd" d="M70.4679 11.7393H70.1723C68.2166 11.7393 66.6974 12.4505 65.7189 13.8094V12.0186H62.4785V28.6784H65.7189V19.5991C65.7189 18.1506 66.1172 17.0266 66.9039 16.258C67.6828 15.4961 68.8389 15.107 70.1606 15.1607L70.4679 15.1734V11.7393Z" fill="white"/>
<path fill-rule="evenodd" clip-rule="evenodd" d="M51.5666 25.466C48.5353 25.466 46.2503 23.2057 46.2503 20.2087C46.2503 17.2117 48.5353 14.9514 51.5666 14.9514C54.6159 14.9514 56.9152 17.2117 56.9152 20.2087C56.9152 23.2057 54.6159 25.466 51.5666 25.466ZM56.9152 14.2049C55.5201 12.5875 53.5685 11.7393 51.2169 11.7393C46.613 11.7393 42.8672 15.5389 42.8672 20.2087C42.8672 24.8788 46.613 28.6784 51.2169 28.6784C53.5685 28.6784 55.5198 27.8297 56.9152 26.2127V28.6784H60.2986V11.8219H56.9152V14.2049Z" fill="white"/>
<path fill-rule="evenodd" clip-rule="evenodd" d="M28.1898 18.7891C28.7301 16.374 30.6463 14.8896 33.2685 14.8896C35.1827 14.8896 37.3813 15.922 37.9738 18.7891H28.1898ZM33.2685 11.7393C28.3102 11.7393 24.7109 15.3009 24.7109 20.2086C24.7109 25.1956 28.3076 28.6784 33.4571 28.6784C36.5478 28.6784 39.0994 27.3828 40.6428 25.0311L40.8186 24.7625L37.9484 23.1557L37.7937 23.4054C36.9721 24.7345 35.3744 25.5278 33.5201 25.5278C30.7707 25.5278 28.8084 24.1247 28.2008 21.7528H41.2785L41.3182 21.4968C41.3832 21.0782 41.416 20.6552 41.416 20.2397C41.416 15.3936 37.9136 11.7393 33.2685 11.7393Z" fill="white"/>
<path fill-rule="evenodd" clip-rule="evenodd" d="M6.09355 25.2917L5.77073 26.4969C5.74027 26.6098 5.6454 26.6853 5.53454 26.6853C5.4197 26.684 5.32532 26.6066 5.29686 26.4919L4.99626 25.2804C4.35411 22.6907 4.0625 18.0616 4.93958 14.018L5.53604 11.2667C5.55377 11.3587 5.57299 11.4487 5.58897 11.5429L6.0516 14.0361C6.82333 18.196 6.83931 22.5086 6.09355 25.2917ZM18.558 13.0981C19.717 11.7828 20.4198 10.077 20.4198 8.2137C20.4198 4.06676 16.9469 0.692871 12.6781 0.692871C10.4617 0.692871 8.34831 1.61689 6.87976 3.22769L6.00816 4.28534C5.66038 3.84371 5.29761 3.45364 4.93359 3.11012C4.1731 2.33576 3.20638 1.67739 2.1001 1.18605C1.41301 0.868312 0.959117 0.754157 0.959117 0.754157L0.015625 4.12884C0.0256117 4.13225 0.0353488 4.13594 0.0453355 4.13909C0.305989 4.22747 2.74849 5.23987 3.92867 7.26757C0.554159 13.2454 0.589363 21.3768 2.0664 26.3375C2.1096 26.4822 2.15478 26.6195 2.19998 26.7565C2.40021 27.3039 3.49151 29.996 5.5655 29.996C6.17619 29.996 7.71414 29.699 8.8002 26.9494C8.95899 26.5164 9.08957 26.1095 9.19897 25.7089C9.35249 25.1457 9.48277 24.5455 9.58663 23.9243C9.6865 23.3279 9.76267 22.6964 9.8136 22.0478C10.0056 19.6108 9.84329 16.8695 9.33079 13.9002C9.05537 12.3062 8.68361 10.6717 8.22546 9.02777L8.22746 9.03014C8.10362 8.49488 7.95457 7.99248 7.78505 7.5214V7.52113C7.78505 7.52113 8.42245 6.42956 9.22439 5.5997L9.22511 5.60049C10.0835 4.65857 11.3421 4.11832 12.6781 4.11832C15.1541 4.11832 17.1683 5.95532 17.1683 8.2137C17.1683 10.4724 15.1541 12.3099 12.6781 12.3099L11.4719 12.3475L11.7198 15.8111L14.5992 15.6848C17.9602 15.7 20.6891 18.1002 20.6891 21.0485C20.6891 24.006 17.9428 26.4122 14.567 26.4122C13.5307 26.4122 12.152 26.0842 11.2504 25.6444L10.1177 28.8529C11.4442 29.4999 13.0617 29.8374 14.567 29.8374C19.7357 29.8374 23.9403 25.8948 23.9403 21.0485C23.9403 17.54 21.7358 14.5065 18.558 13.0981Z" fill="white"/>
</svg>
