<svg width="109" height="28" viewBox="0 0 109 28" fill="none" xmlns="http://www.w3.org/2000/svg">
<path d="M95.0054 20.7863C94.3011 20.7863 93.773 20.7863 93.446 20.259L90.5284 12.3992L90.0254 11.0181C89.1451 8.58228 87.1078 7.20117 84.3914 7.20117C82.7817 7.20117 81.0965 7.90428 79.8892 8.78317L80.9708 9.63695C81.675 9.08451 82.6811 8.50695 83.6117 8.50695C85.7999 8.50695 86.982 9.5365 87.7617 11.6458L88.2899 13.1274C87.1832 12.4494 85.9005 12.0978 84.5926 12.0978C81.9517 12.0978 79.2856 13.8305 79.2856 17.1452C79.2856 20.4598 81.4989 22.1423 85.6993 22.1423C88.466 22.1423 90.0757 21.0876 90.9308 20.2841L91.4339 21.6652H95.5336L95.1815 20.7863H95.0054ZM85.4729 21.3387C83.1087 21.3387 81.675 19.6563 81.675 17.2456C81.675 15.6887 81.9265 13.0772 85.0705 13.0772C86.4035 13.0772 87.7114 13.5292 88.7678 14.3327L90.4781 18.9783C89.8493 20.5854 87.5856 21.3387 85.4729 21.3387ZM61.6543 20.7863C60.95 20.7863 60.4218 20.7863 60.0949 20.259L57.1773 12.3992L56.6742 11.0181C55.7939 8.58228 53.7566 7.20117 51.0403 7.20117C49.4306 7.20117 47.9718 7.90428 46.7645 8.78317L47.8209 9.63695C48.5251 9.08451 49.5312 8.50695 50.4618 8.50695C52.65 8.50695 53.6309 9.5365 54.3854 11.6458L54.9136 13.1274C53.807 12.4494 52.4991 12.0978 51.1912 12.0978C48.5503 12.0978 46.0854 13.8305 46.0854 17.1452C46.0854 20.4598 48.0975 22.1423 52.2727 22.1423C55.0394 22.1423 56.6491 21.0876 57.5042 20.2841L58.0073 21.6652H62.107L61.7549 20.7863H61.6543ZM52.1218 21.3387C49.7575 21.3387 48.5251 19.6563 48.5251 17.2456C48.5251 15.6887 48.5503 13.0772 51.6942 13.0772C53.0273 13.0772 54.3351 13.5041 55.3915 14.3327L57.1018 18.9783C56.473 20.5854 54.2094 21.3387 52.1218 21.3387ZM35.9744 20.7863C35.2702 20.7863 34.742 20.7863 34.415 20.259L31.4974 12.3992L30.9944 11.0181C30.1141 8.58228 28.0768 7.20117 25.3604 7.20117C23.7507 7.20117 22.0907 7.90428 20.8583 8.78317L21.9398 9.63695C22.644 9.08451 23.6501 8.50695 24.5807 8.50695C26.7689 8.50695 27.951 9.5365 28.7307 11.6458L29.2841 13.1274C28.1774 12.4494 26.8947 12.0978 25.5868 12.0978C22.9459 12.0978 20.2546 13.8305 20.2546 17.1452C20.2546 20.4598 22.468 22.1423 26.6683 22.1423C29.4098 22.1423 31.0447 21.0876 31.8998 20.2841L32.4029 21.6652H36.5026L36.1505 20.7863H35.9744ZM26.4168 21.3387C24.0525 21.3387 22.5937 19.6563 22.5937 17.2456C22.5937 15.6887 22.8452 13.0772 25.9892 13.0772C27.3222 13.0772 28.6301 13.5292 29.6865 14.3327L31.3968 18.9783C30.7932 20.5854 28.5295 21.3387 26.4168 21.3387ZM73.4253 20.1334L69.2501 7.62806H66.4834L69.0992 15.0609L66.7601 20.6356L62.4088 7.62806H59.6421L64.6222 21.6652H67.1625L69.5016 16.1909L71.4383 21.6652H73.9786L78.858 7.62806H77.8519L73.4253 20.1334ZM108.336 16.4421V7.62806H105.997L106.223 16.0152V17.2205C106.223 19.0285 104.664 20.7361 102.878 21.0374C102.325 21.0876 101.746 21.0876 101.193 21.0374C99.4069 20.8616 97.8475 19.0285 97.8475 17.2205V16.0152L98.0487 7.62806H95.7096V18.3254C95.7096 19.9576 97.0427 22.6696 101.369 22.6696H102.626C103.859 22.6696 105.292 21.9916 106.122 21.2885C105.997 22.3683 105.896 23.4983 105.569 24.2265C105.091 25.2561 104.035 26.4865 101.595 26.4865C99.2309 26.4865 96.7409 24.4525 96.4893 24.1009L96.439 24.0256L95.6845 24.1009L95.8102 24.327C95.8354 24.3521 97.6966 27.6667 101.721 27.8927C104.714 28.0434 106.525 26.8381 107.506 24.327C107.581 24.1261 107.632 23.9503 107.682 23.7494C108.059 22.2678 108.21 20.2589 108.26 18.7272C108.285 18.6016 108.285 18.5012 108.285 18.3756V17.8985L108.336 16.4421ZM39.8981 10.0387V7.57784H37.3829V21.6149H40.1244V11.1687C40.8287 10.0889 42.0108 9.43606 43.2936 9.41095C43.9223 9.41095 44.526 9.58673 45.029 9.91317V7.55273C44.6517 7.35184 44.2242 7.25139 43.7966 7.30162C42.4887 7.30162 40.5017 9.18495 39.8981 10.0387ZM10.6467 19.6061C5.69181 19.6061 2.44724 14.3829 2.44724 9.71228C2.44724 7.02539 3.07604 4.7905 4.63544 3.28384C6.11939 1.92784 8.05607 1.19962 10.043 1.22473C12.1055 1.22473 13.6649 2.50539 14.6458 3.58517C15.2997 4.31339 15.8279 5.11695 16.2807 5.97073L16.3561 6.1465L18.7204 4.63984C18.5695 4.3385 17.7143 3.38428 17.4376 3.08295C15.9285 1.52606 14.1428 0.0947266 10.1185 0.0947266C6.29545 0.0947266 3.95634 1.97806 2.67361 3.53495C1.0639 5.54384 0.183594 8.02984 0.183594 10.5912C0.183594 12.1983 0.460262 15.287 2.32149 17.8985C4.05695 20.3343 6.74818 21.6149 10.0934 21.6149C14.9728 21.6149 17.5885 18.2752 18.821 15.9901L17.7395 15.5381C15.7776 18.2752 13.4637 19.6061 10.6467 19.6061Z" fill="white"/>
</svg>
