<svg width="128" height="30" viewBox="0 0 128 30" fill="none" xmlns="http://www.w3.org/2000/svg">
<path fill-rule="evenodd" clip-rule="evenodd" d="M121.171 10.9976C121.544 10.9966 121.915 10.9533 122.278 10.8685C122.488 12.016 123.094 13.0534 123.991 13.8002C124.887 14.547 126.017 14.956 127.184 14.956V30H0.285156V0H112.225C112.225 1.16627 112.633 2.29571 113.379 3.19201C114.126 4.08831 115.162 4.69481 116.309 4.90611C116.227 5.26814 116.185 5.63811 116.183 6.00938C116.183 7.33235 116.709 8.60114 117.644 9.53662C118.58 10.4721 119.848 10.9976 121.171 10.9976ZM119.216 19.2664H117.614V19.6273H118.201V21.514H118.629V19.6273H119.216V19.2664ZM120.572 20.8303L121.006 19.2664H121.631V21.5081H121.25V19.7476L120.748 21.5081H120.422L119.923 19.7476V21.5081H119.551V19.2664H120.137L120.572 20.8303ZM39.4098 21.8104C42.1298 21.8104 42.614 19.5803 42.526 18.0604L41.1146 17.9635V18.4858C41.1146 19.2106 40.8182 19.2986 40.6715 19.2986C40.472 19.2986 40.2167 19.1695 40.2167 18.4858C40.2167 17.7893 40.2136 17.2248 40.2103 16.6112C40.2063 15.8808 40.202 15.0808 40.202 13.9054C40.202 11.7429 38.7554 10.6396 35.3751 10.6396C32.1445 10.6396 30.3223 12.3385 30.5277 14.9794L34.0489 14.7241C34.0283 13.7206 34.7061 13.4213 35.202 13.4536C35.6979 13.4859 36.0588 13.7617 36.1175 14.0903C36.2763 15.0281 35.2864 15.2795 33.9583 15.6168C33.1753 15.8157 32.2748 16.0444 31.4227 16.4612C29.6386 17.3415 29.4596 20.1672 31.1058 21.203C32.8341 22.3151 35.8358 21.9248 36.6486 19.7358C36.9098 21.2675 38.0248 21.8104 39.4098 21.8104ZM35.2507 17.0505C35.6171 16.901 36.0363 16.7299 36.4109 16.4084H36.4139C36.4091 16.4649 36.4096 16.5561 36.4102 16.6708C36.4125 17.1164 36.4168 17.9173 36.1205 18.4213C35.9829 18.6187 35.7847 18.7659 35.556 18.8406C35.3272 18.9153 35.0804 18.9133 34.8528 18.835C34.7225 18.8024 34.6023 18.7377 34.5033 18.6468C34.4042 18.556 34.3294 18.4418 34.2857 18.3148C34.242 18.1877 34.2307 18.0517 34.2529 17.9191C34.2751 17.7865 34.33 17.6616 34.4127 17.5557C34.5776 17.3251 34.8883 17.1983 35.2507 17.0505ZM72.4145 21.8104C75.1345 21.8104 75.6187 19.5803 75.5307 18.0604L74.0899 17.9635V18.4858C74.0899 19.2106 73.7936 19.2986 73.6498 19.2986C73.4503 19.2986 73.195 19.1695 73.195 18.4858V13.9054C73.195 11.7429 71.7454 10.6396 68.3681 10.6396C65.1375 10.6396 63.3153 12.3385 63.5177 14.9794L67.0535 14.7241C67.033 13.7206 67.7079 13.4213 68.2067 13.4536C68.7055 13.4859 69.0665 13.7617 69.1222 14.0903C69.281 15.0281 68.2911 15.2795 66.963 15.6168C66.18 15.8157 65.2795 16.0444 64.4274 16.4612C62.6404 17.3415 62.4643 20.1672 64.1075 21.203C65.8534 22.3151 68.8376 21.9248 69.6504 19.7358C69.9145 21.2675 71.0295 21.8104 72.4145 21.8104ZM68.2407 17.0559C68.6065 16.9065 69.0252 16.7355 69.401 16.4142H69.4039C69.3991 16.4707 69.3996 16.5619 69.4002 16.6767C69.4026 17.1223 69.4068 17.9231 69.1105 18.4272C68.9729 18.6246 68.7748 18.7718 68.546 18.8465C68.3173 18.9211 68.0704 18.9192 67.8429 18.8409C67.7125 18.8083 67.5923 18.7436 67.4933 18.6527C67.3942 18.5619 67.3195 18.4477 67.2757 18.3206C67.232 18.1935 67.2207 18.0575 67.2429 17.925C67.2651 17.7924 67.32 17.6675 67.4027 17.5616C67.5678 17.3308 67.8782 17.204 68.2407 17.0559ZM16.3757 9.64781C15.8505 9.67422 15.651 10.0498 15.651 10.7687V11.5111H17.705V13.9964H15.651V21.514H11.3405V13.9817H10.2812V11.4964H11.3405V10.5105C11.3405 8.40662 13.2859 7.57622 15.2724 7.57622C17.1768 7.57622 19.3687 7.69359 19.4538 10.2171L17.0682 10.3902C17.0682 10.1144 16.901 9.6214 16.3757 9.64781ZM48.2478 13.213C47.4174 13.213 47.0418 13.656 47.2677 14.0463H47.2589C47.5073 14.4718 48.3514 14.6264 49.3481 14.809C51.2243 15.1527 53.641 15.5955 53.641 18.1308C53.641 20.1202 52.2971 21.8162 48.5706 21.8162C45.9943 21.8162 44.0078 21.0123 42.9074 19.2986L46.0471 17.5557C46.0471 17.5557 47.0213 18.7294 48.5089 18.7294C49.3364 18.7294 49.7589 18.3919 49.6064 17.9401C49.4393 17.4421 48.5308 17.2839 47.4484 17.0954C45.6034 16.774 43.2529 16.3647 43.2067 14.0346C43.1744 11.9454 45.2137 10.6308 47.9015 10.6308C50.1052 10.6308 52.0829 11.112 53.0395 12.9782L50.0758 14.2986C49.8992 13.9681 49.6355 13.6922 49.3132 13.5009C48.991 13.3095 48.6225 13.2099 48.2478 13.213ZM111.361 13.213C110.528 13.213 110.152 13.656 110.381 14.0463L110.399 14.061C110.647 14.4864 111.491 14.6411 112.488 14.8237C114.364 15.1674 116.781 15.6102 116.781 18.1455C116.781 20.1349 115.434 21.8309 111.71 21.8309C109.131 21.8309 107.145 21.0269 106.047 19.3133L109.154 17.5557C109.154 17.5557 110.132 18.7294 111.619 18.7294C112.444 18.7294 112.866 18.3919 112.717 17.9401C112.549 17.4422 111.64 17.2839 110.557 17.0955C108.712 16.7741 106.361 16.3649 106.317 14.0346C106.285 11.9454 108.327 10.6308 111.012 10.6308C113.216 10.6308 115.193 11.112 116.15 12.9782L113.189 14.2986C113.012 13.9681 112.749 13.6922 112.426 13.5009C112.104 13.3095 111.736 13.2099 111.361 13.213ZM29.3159 16.5756V16.5169C29.3159 13.0809 26.9538 10.6807 23.6557 10.6807C22.9166 10.6641 22.1818 10.7965 21.4952 11.0702C20.8085 11.3438 20.184 11.7531 19.6589 12.2734C19.1339 12.7938 18.7191 13.4146 18.4394 14.0988C18.1596 14.7831 18.0206 15.5167 18.0307 16.2558C18.0218 16.9946 18.1617 17.7276 18.4419 18.4113C18.7221 19.095 19.1369 19.7153 19.6617 20.2354C20.1864 20.7555 20.8104 21.1648 21.4966 21.4389C22.1827 21.713 22.917 21.8463 23.6557 21.8309C26.3699 21.8309 28.3065 20.487 29.0107 18.2922L25.8182 18.0633C25.4338 18.4653 25.114 18.791 23.996 18.791C22.969 18.791 22.1005 18.0105 22.1944 16.5756H29.3159ZM25.0113 14.8004V15.1261H22.2883C22.2883 14.0492 23.0072 13.6003 23.729 13.6003C24.5447 13.6003 24.9937 13.9935 25.0113 14.8004ZM56.9949 8.35087L59.4831 8.52985H59.489V11.5492H61.8804V14.0346H59.4919V18.5416C59.4919 19.2253 59.7472 19.3544 59.9467 19.3544C60.0935 19.3544 60.3869 19.2664 60.3869 18.5416V18.0017L61.8188 18.1044C61.8833 19.9178 61.3757 21.8544 58.4415 21.8544C56.7278 21.8544 55.2138 21.0005 55.2138 19.2752V14.0346H53.908V11.5492C56.4931 11.5492 56.9949 9.55979 56.9949 8.35087ZM89.2014 21.5522V6.64606L93.4062 6.93948L93.4239 21.5522H89.2014ZM83.7026 21.8779C86.1498 21.8779 88.013 19.7358 88.013 16.2147V16.1766C88.013 12.7934 86.0266 10.6543 83.7026 10.6543C83.0277 10.6492 82.3622 10.8117 81.7656 11.1272C81.169 11.4426 80.66 11.9012 80.2842 12.4618C80.3606 11.8487 80.3949 11.231 80.3869 10.6132L80.3693 6.90134L76.2408 6.60791V21.5522H80.3194V19.9471C81.2114 21.2352 82.3118 21.8779 83.7026 21.8779ZM82.1093 14.6507C83.0101 14.686 83.6028 15.355 83.5764 16.3203H83.5882C83.5588 17.2945 82.9485 17.8961 82.0007 17.8814C81.053 17.8667 80.428 17.1801 80.4661 16.1531C80.4633 15.9428 80.5051 15.7344 80.5886 15.5414C80.6722 15.3484 80.7956 15.1753 80.9508 15.0334C81.106 14.8915 81.2894 14.7841 81.4891 14.7181C81.6888 14.6522 81.9001 14.6292 82.1093 14.6507ZM105.804 16.561V16.5023C105.804 13.0662 103.441 10.666 100.143 10.666C99.4043 10.6494 98.6695 10.7819 97.9828 11.0555C97.2961 11.3292 96.6716 11.7384 96.1466 12.2587C95.6216 12.7791 95.2068 13.4 94.9271 14.0842C94.6473 14.7684 94.5083 15.502 94.5183 16.2411C94.5095 16.9799 94.6494 17.713 94.9296 18.3966C95.2098 19.0803 95.6246 19.7006 96.1493 20.2207C96.6741 20.7409 97.2981 21.1501 97.9843 21.4242C98.6704 21.6983 99.4046 21.8316 100.143 21.8162C102.858 21.8162 104.794 20.4723 105.498 18.2775L102.306 18.0486C101.922 18.4506 101.602 18.7763 100.484 18.7763C99.4567 18.7763 98.5882 17.9958 98.6821 16.561H105.804ZM101.499 14.7857V15.1114H98.776C98.776 14.0345 99.4949 13.5856 100.217 13.5856C101.032 13.5856 101.481 13.9788 101.499 14.7857Z" fill="white"/>
</svg>
