<svg width="123" height="26" viewBox="0 0 123 26" fill="none" xmlns="http://www.w3.org/2000/svg">
<path d="M99.0874 14.9409C99.0188 12.2139 98.0374 9.81909 96.0198 8.62817C94.6879 7.84185 93.3187 7.82813 92.844 7.82813C89.0922 7.82813 85.7488 10.2542 84.8985 13.8589C84.7027 10.6427 83.0355 7.82813 78.9157 7.82813C78.8578 7.82813 77.4536 7.81975 76.0203 8.38359C72.4636 9.78175 71.5599 12.3091 70.8391 14.4151C70.9298 13.1876 71.0517 11.9167 71.2102 10.6054C71.3138 9.74975 71.4281 8.9139 71.5523 8.10015C71.5706 7.98128 71.4495 7.88909 71.3298 7.92795C71.3054 7.93557 71.2788 7.94319 71.2536 7.95157C69.9964 8.58855 68.4847 9.12038 66.8184 9.46859C66.5715 9.5204 66.3262 9.56688 66.0823 9.60803C65.9932 9.62327 65.9338 9.69946 65.9459 9.78404C66.2644 12.0333 66.4763 14.614 66.445 17.4675C66.4153 20.1838 66.17 22.6395 65.8339 24.7821C65.8187 24.8781 65.8964 24.9627 65.9993 24.9642L71.5668 25.0221C71.6674 25.0229 71.7458 24.9413 71.7359 24.8461C71.4952 22.6471 71.4952 20.4497 71.4952 18.2507C71.4952 14.1073 73.0648 11.7255 76.2032 11.7255C79.0475 11.7255 80.2567 13.8901 80.2567 17.725C80.2567 20.1099 80.2567 22.4361 80.0442 24.7889C80.0358 24.8819 80.1127 24.9619 80.2118 24.9619H85.6162C85.7206 24.9619 85.7991 24.8743 85.7831 24.7768C85.5141 23.1584 85.4227 20.6623 85.4227 18.2812C85.4227 13.9511 86.9595 11.7247 89.9677 11.7247C92.9758 11.7247 94.185 13.7964 94.185 17.7242C94.185 20.0786 94.185 22.4323 93.9427 24.7867C93.9328 24.8804 94.0105 24.9611 94.1096 24.9611H99.4401C99.5468 24.9611 99.6253 24.8705 99.6047 24.7714C98.9342 21.5408 99.1536 17.1848 99.0889 14.9401L99.0874 14.9409Z" fill="white"/>
<path d="M28.2448 22.9481C28.0109 21.9225 27.9918 20.8505 28.1892 19.7205C28.2136 19.5803 28.0467 19.4843 27.924 19.5674C25.7258 21.0547 21.9298 22.174 18.956 22.2334C14.2479 22.2951 11.4943 20.212 11.0699 17.3349C14.4125 17.2427 20.6414 17.2419 27.9827 17.3631C28.0726 17.3646 28.1511 17.2991 28.1595 17.2145C28.7462 11.0961 23.6434 7.84033 17.1586 7.84033C10.6737 7.84033 6.33594 11.119 6.33594 16.6857C6.33594 22.2525 10.423 25.4998 18.3678 25.4998C21.8163 25.4998 25.3921 24.3867 28.1556 23.1249C28.2257 23.0929 28.2616 23.0205 28.2456 22.9481H28.2448ZM17.1586 11.1502C20.2292 11.263 22.3314 12.7213 22.787 15.6601C21.0612 15.7318 19.2729 15.7744 17.4184 15.7767C15.3276 15.7798 12.8437 15.7318 10.9167 15.6479C11.1583 12.6985 13.7824 11.026 17.1586 11.1502Z" fill="white"/>
<path d="M122.282 22.9481C122.048 21.9225 122.029 20.8505 122.226 19.7205C122.251 19.5803 122.084 19.4843 121.961 19.5674C119.763 21.0547 115.967 22.174 112.993 22.2334C108.285 22.2951 105.531 20.212 105.107 17.3349C108.45 17.2427 114.679 17.2419 122.02 17.3631C122.11 17.3646 122.188 17.2991 122.197 17.2145C122.783 11.0961 117.681 7.84033 111.196 7.84033C104.711 7.84033 100.373 11.119 100.373 16.6857C100.373 22.2525 104.46 25.4998 112.405 25.4998C115.853 25.4998 119.429 24.3867 122.193 23.1249C122.263 23.0929 122.299 23.0205 122.283 22.9481H122.282ZM111.196 11.1502C114.266 11.263 116.368 12.7213 116.824 15.6601C115.098 15.7318 113.31 15.7744 111.455 15.7767C109.365 15.7798 106.881 15.7318 104.954 15.6479C105.195 12.6985 107.82 11.026 111.196 11.1502Z" fill="white"/>
<path d="M5.73793 0.67725C5.75317 0.566007 5.64726 0.481431 5.53525 0.503527C4.25138 1.17327 2.68788 1.73178 0.95751 2.09294C0.703022 2.14627 0.450057 2.19351 0.198616 2.23618C0.114041 2.25066 0.0553713 2.32 0.0614669 2.40152C0.470629 8.28219 0.450819 19.1696 0.000511538 24.8956C-0.00710788 24.9893 0.0713721 25.067 0.170424 25.067H5.41868C5.52078 25.067 5.59926 24.9839 5.58783 24.8879C5.12457 21.1681 4.82436 16.9348 4.87846 12.2786C4.92799 8.02237 5.26476 4.13265 5.73869 0.676488L5.73793 0.67725Z" fill="white"/>
<path d="M63.187 14.9409C63.1184 12.2139 62.137 9.81909 60.1194 8.62817C58.7875 7.84185 57.4183 7.82813 56.9436 7.82813C53.1918 7.82813 49.8484 10.2542 48.9981 13.8589C48.8023 10.6427 47.1351 7.82813 43.0153 7.82813C42.9574 7.82813 41.5532 7.81975 40.1199 8.38359C36.5632 9.78175 35.6595 12.3091 34.9387 14.4151C35.0294 13.1876 35.1513 11.9167 35.3098 10.6054C35.4134 9.74975 35.5277 8.9139 35.6519 8.10015C35.6702 7.98128 35.5491 7.88909 35.4294 7.92795C35.4051 7.93557 35.3784 7.94319 35.3532 7.95157C34.096 8.58855 32.5843 9.12038 30.918 9.46859C30.6711 9.5204 30.4258 9.56688 30.1819 9.60803C30.0928 9.62327 30.0334 9.69946 30.0456 9.78404C30.3641 12.0333 30.5759 14.614 30.5446 17.4675C30.5149 20.1838 30.2696 22.6395 29.9336 24.7821C29.9183 24.8781 29.996 24.9627 30.0989 24.9642L35.6664 25.0221C35.767 25.0229 35.8455 24.9413 35.8356 24.8461C35.5948 22.6471 35.5948 20.4497 35.5948 18.2507C35.5948 14.1073 37.1644 11.7255 40.3028 11.7255C43.1471 11.7255 44.3563 13.8901 44.3563 17.725C44.3563 20.1099 44.3563 22.4361 44.1438 24.7889C44.1354 24.8819 44.2123 24.9619 44.3114 24.9619H49.7158C49.8202 24.9619 49.8987 24.8743 49.8827 24.7768C49.6137 23.1584 49.5223 20.6623 49.5223 18.2812C49.5223 13.9511 51.0591 11.7247 54.0673 11.7247C57.0754 11.7247 58.2846 13.7964 58.2846 17.7242C58.2846 20.0786 58.2846 22.4323 58.0423 24.7867C58.0324 24.8804 58.1101 24.9611 58.2092 24.9611H63.5397C63.6464 24.9611 63.7249 24.8705 63.7043 24.7714C63.0338 21.5408 63.2533 17.1848 63.1885 14.9401L63.187 14.9409Z" fill="white"/>
</svg>
