<svg width="43" height="44" viewBox="0 0 43 44" fill="none" xmlns="http://www.w3.org/2000/svg">
<path d="M8.85986 9.44155C8.31928 8.43868 8.04868 7.31898 8.0733 6.18689C8.0419 5.04271 8.32248 3.91084 8.88653 2.9063C9.41525 2.00615 10.203 1.27599 11.1529 0.805684C12.2023 0.291916 13.3644 0.0338234 14.5391 0.0536116C15.4238 0.0447127 16.3034 0.185105 17.1387 0.468548C17.9037 0.72167 18.6006 1.13815 19.1785 1.68742C19.7774 2.22704 20.2346 2.89847 20.5116 3.6454V3.73617L18.8185 4.17704V4.09924C18.5153 3.33076 17.957 2.68275 17.2321 2.25796C16.4214 1.81023 15.4971 1.59447 14.5658 1.63556C13.7084 1.59622 12.8538 1.75624 12.0728 2.10236C11.3708 2.46372 10.7988 3.0246 10.433 3.71024C10.021 4.46806 9.81886 5.31711 9.8464 6.17392C9.83042 7.01001 10.0225 7.83746 10.4063 8.58574C10.779 9.26322 11.3496 9.81819 12.0461 10.1807C12.8423 10.573 13.727 10.7647 14.6191 10.7382C15.5218 10.7648 16.4153 10.5543 17.2054 10.1288C17.9395 9.67647 18.494 8.99534 18.7785 8.19674V8.11894L20.4716 8.55981V8.65058C20.2155 9.41083 19.782 10.1031 19.2051 10.6734C18.6259 11.2239 17.9296 11.6444 17.1654 11.9052C16.3083 12.1935 15.4059 12.334 14.4991 12.3202C13.3138 12.345 12.1408 12.0821 11.0862 11.5551C10.1474 11.0777 9.37334 10.3428 8.85986 9.44155ZM33.6698 4.54011C33.7996 4.41916 33.8995 4.2711 33.9618 4.10712C34.0242 3.94315 34.0474 3.76753 34.0298 3.59354C34.0385 3.38602 34.0014 3.17909 33.9209 2.98672C33.8404 2.79435 33.7184 2.62101 33.5632 2.4784C33.1855 2.14631 32.7265 1.91414 32.23 1.80412C31.6378 1.65723 31.0281 1.58747 30.417 1.59666C29.4921 1.57227 28.573 1.74487 27.724 2.10236C26.9503 2.46962 26.3191 3.0699 25.9242 3.81397V3.89177L24.2978 3.32124V3.23047C24.8015 2.1743 25.6627 1.31833 26.7375 0.805684C27.9071 0.25085 29.1959 -0.0247497 30.4969 0.00174464C31.402 -0.00244207 32.302 0.133239 33.1633 0.403714C33.9168 0.642666 34.5803 1.09399 35.0697 1.70039C35.5598 2.29453 35.8152 3.03966 35.7896 3.80101V12.2294H34.0298V10.064C33.7237 10.526 33.3247 10.923 32.8566 11.231C32.2689 11.6243 31.6145 11.914 30.9236 12.0868C30.183 12.2705 29.4215 12.362 28.6572 12.3591C27.8376 12.3711 27.0218 12.2483 26.2442 11.996C25.626 11.7692 25.0888 11.3729 24.6977 10.8549C24.2808 10.2945 24.0695 9.61409 24.0978 8.92288C24.0702 8.53976 24.1247 8.15524 24.2578 7.79365C24.3909 7.43207 24.5997 7.10129 24.871 6.82226C25.3575 6.34654 25.9721 6.01395 26.6441 5.86272C27.4458 5.67204 28.2615 5.54198 29.0838 5.47372L31.0169 5.30515C31.5822 5.25625 32.1435 5.1696 32.6966 5.04582C33.0589 4.9578 33.3932 4.78409 33.6698 4.54011ZM26.3108 7.704C26.142 7.85701 26.0102 8.04453 25.9249 8.25306C25.8396 8.46159 25.803 8.68593 25.8176 8.90991C25.7948 9.19743 25.8583 9.48519 26.0003 9.73835C26.1422 9.9915 26.3566 10.1992 26.6175 10.3363C27.3188 10.6641 28.0934 10.8157 28.8705 10.7771C29.7765 10.794 30.6786 10.658 31.5368 10.3752C32.2619 10.1484 32.9111 9.73641 33.4166 9.18221C33.8422 8.64027 34.0592 7.97043 34.0298 7.28907V5.99239C33.6037 6.19683 33.1569 6.35762 32.6966 6.47216C32.1123 6.59744 31.5199 6.68408 30.9236 6.73149L29.3371 6.8871C28.7222 6.9335 28.1117 7.02452 27.5107 7.1594C27.0722 7.24644 26.6611 7.43304 26.3108 7.704ZM9.05984 28.0359C8.22286 28.5071 7.26681 28.7407 6.30021 28.7102C5.22456 28.7401 4.16196 28.475 3.23396 27.9451C2.38792 27.3968 1.72889 26.6159 1.34088 25.7019C0.895375 24.6863 0.677237 23.5901 0.700967 22.4861C0.680831 21.3879 0.894149 20.2976 1.32755 19.2833C1.71337 18.3891 2.36875 17.6296 3.2073 17.1049C4.12611 16.5788 5.18163 16.3222 6.24688 16.3658C7.21707 16.3409 8.17583 16.5741 9.01984 17.0401C9.69997 17.4413 10.2499 18.0211 10.6063 18.7128V14.0966H12.3661V28.4768H10.6196V26.2724C10.2877 26.9957 9.74554 27.6087 9.05984 28.0359ZM10.1264 20.1391C9.83911 19.4521 9.34097 18.868 8.69989 18.4664C8.04627 18.0676 7.2846 17.8688 6.51351 17.8959C5.74027 17.8709 4.97617 18.0646 4.31381 18.4534C3.72334 18.8574 3.2614 19.4145 2.98066 20.0613C2.64545 20.8273 2.48184 21.6539 2.50072 22.4861C2.48538 23.3126 2.64418 24.1334 2.96733 24.8979C3.23819 25.5505 3.70219 26.1101 4.30048 26.5058C4.96524 26.9017 5.73444 27.1 6.51351 27.0763C7.28359 27.0949 8.04279 26.8968 8.69989 26.5058C9.32071 26.1174 9.80813 25.5575 10.0997 24.8979C10.7487 23.352 10.7487 21.6202 10.0997 20.0743L10.1264 20.1391ZM25.4843 28.01C24.4447 28.493 23.3033 28.7328 22.1514 28.7102C20.9776 28.7355 19.8153 28.4818 18.7652 27.9711C17.8148 27.4926 17.0344 26.7471 16.5255 25.8315C16.0017 24.8329 15.7406 23.7236 15.7656 22.6028C15.7404 21.465 16.0159 20.3399 16.5655 19.3352C17.0919 18.4015 17.8895 17.6393 18.8585 17.1438C19.9081 16.615 21.0762 16.3477 22.2581 16.3658C23.3206 16.3496 24.3733 16.5668 25.3376 17.0012C26.176 17.3896 26.8801 18.0068 27.364 18.7776C27.8776 19.6165 28.1451 20.5762 28.1373 21.5525V23.0177H17.5387C17.5617 23.7582 17.7773 24.4809 18.1653 25.1184C18.5604 25.7317 19.1237 26.2257 19.7917 26.5447C20.5794 26.8823 21.4307 27.0566 22.2914 27.0566C23.1521 27.0566 24.0034 26.8823 24.791 26.5447C25.5184 26.1751 26.1238 25.6133 26.5375 24.9239V24.8461L27.8706 25.7278V25.8056C27.2751 26.7045 26.4538 27.4409 25.4843 27.9451V28.01ZM26.3642 21.5525V21.3191C26.38 20.6691 26.1992 20.0288 25.8442 19.4778C25.4964 18.9502 24.9953 18.535 24.4044 18.2849C23.7087 18.001 22.9589 17.864 22.2047 17.8829C21.4068 17.8685 20.6152 18.0233 19.885 18.3367C19.2409 18.6257 18.685 19.0725 18.2719 19.6334C17.8738 20.206 17.6265 20.8651 17.552 21.5525H26.3642ZM42.1354 18.3108C41.7581 17.664 41.1921 17.1406 40.5089 16.8067C39.7281 16.4765 38.8797 16.3257 38.0293 16.3658C37.0384 16.3451 36.0593 16.5776 35.1896 17.0401C34.4795 17.4548 33.8952 18.0454 33.4965 18.7517V16.69H31.7234V28.4768H33.4832V21.9934C33.4758 21.2689 33.6594 20.5546 34.0165 19.9187C34.3606 19.3163 34.8738 18.8216 35.4963 18.4923C36.1663 18.1375 36.9199 17.9587 37.6826 17.9737C38.1271 17.9447 38.5729 18.0071 38.9909 18.1568C39.409 18.3065 39.7899 18.5401 40.109 18.8425C40.6965 19.5417 40.9916 20.4306 40.9355 21.3321V28.5157H42.6953V20.7356C42.7298 19.8978 42.5366 19.0659 42.1354 18.3238V18.3108ZM12.0061 33.7024C12.7933 33.3452 13.6582 33.1805 14.5258 33.2226C15.4569 33.1829 16.3808 33.3986 17.1921 33.845C17.9111 34.2764 18.4676 34.9223 18.7785 35.6863V35.7641L20.4716 35.3232V35.2324C20.1946 34.4855 19.7374 33.8141 19.1385 33.2745C18.5543 32.7362 17.859 32.3251 17.0988 32.0686C16.242 31.7787 15.3394 31.6382 14.4324 31.6536C13.2588 31.6293 12.0967 31.8829 11.0462 32.3927C10.107 32.8801 9.33009 33.6178 8.80654 34.5193C8.2524 35.527 7.97677 36.6574 8.00665 37.7999C7.99266 38.9143 8.26291 40.0147 8.79321 41.0027C9.31011 41.9201 10.0938 42.6689 11.0462 43.1551C12.1066 43.6781 13.2839 43.9366 14.4724 43.9072C15.3787 43.9279 16.2815 43.7918 17.1387 43.5052C17.8823 43.2468 18.5598 42.8355 19.1251 42.2993C19.7021 41.7291 20.1355 41.0368 20.3916 40.2765V40.1857L18.7385 39.706V39.7838C18.4665 40.5818 17.9143 41.2612 17.1787 41.7029C16.3917 42.1371 15.4969 42.3525 14.5924 42.3253C13.701 42.3448 12.818 42.1534 12.0194 41.7677C11.3229 41.4052 10.7523 40.8503 10.3797 40.1728C9.98489 39.4139 9.78803 38.5723 9.8064 37.7221C9.78249 36.8656 9.98443 36.0174 10.393 35.2584C10.7647 34.5989 11.3251 34.0585 12.0061 33.7024ZM35.163 34.0654C35.6697 34.9196 35.9235 35.8934 35.8962 36.8792V38.4093H25.231C25.2647 39.1498 25.4844 39.871 25.8709 40.5099C26.2606 41.1245 26.8257 41.6156 27.4973 41.9233C28.2677 42.2764 29.1123 42.4496 29.9637 42.429C30.8405 42.4453 31.7087 42.2586 32.4967 41.8844C33.2262 41.5236 33.8327 40.9652 34.2431 40.2765V40.1987L35.5763 41.0805V41.1583C34.9811 42.0636 34.148 42.7977 33.1633 43.2848C32.1269 43.7784 30.984 44.023 29.8304 43.998C28.6506 44.0258 27.4822 43.7673 26.4308 43.2459C25.4994 42.7255 24.7513 41.9436 24.2845 41.0027C23.763 39.9973 23.4913 38.887 23.4913 37.761C23.4913 36.6349 23.763 35.5246 24.2845 34.5193C24.8098 33.5893 25.6019 32.8279 26.5641 32.3279C27.6398 31.8101 28.8309 31.5606 30.0303 31.6017C31.0894 31.5778 32.1395 31.7954 33.0966 32.2371C33.9556 32.6351 34.6746 33.2712 35.163 34.0654ZM34.1231 36.8533V36.6199C34.1405 35.9697 33.9596 35.329 33.6032 34.7786C33.2518 34.2541 32.7517 33.8397 32.1634 33.5857C31.4854 33.324 30.7594 33.2005 30.0303 33.2226C29.2309 33.2071 28.4381 33.3666 27.7107 33.6894C27.0665 33.9784 26.5106 34.4252 26.0975 34.9861C25.7014 35.5549 25.4543 36.2092 25.3776 36.8922L34.1231 36.8533Z" fill="white"/>
</svg>
