<svg width="124" height="22" viewBox="0 0 124 22" fill="none" xmlns="http://www.w3.org/2000/svg">
<g clip-path="url(#clip0_5377_5140)">
<path d="M51.4388 0.515529V2.76275C52.9452 0.79236 54.8351 -0.0299936 57.1775 0.0487135C59.5199 0.127421 61.3381 1.06376 62.6128 2.98802C63.1867 2.44521 63.6943 1.9024 64.2848 1.4383C66.881 -0.572803 71.8969 -0.477811 74.1676 1.98111C75.5057 3.43583 76.0658 5.18096 76.0989 7.08621C76.1541 9.85182 76.132 12.6201 76.1403 15.3885C76.1403 17.1879 76.1237 18.9873 76.1403 20.7867C76.1403 21.2861 76.0327 21.4842 75.4781 21.4706C74.0131 21.4326 72.5425 21.4408 71.0775 21.4706C70.5974 21.4706 70.4595 21.3322 70.4622 20.8654C70.4788 17.0277 70.4622 13.1928 70.4622 9.35786C70.4622 8.38352 70.4043 7.41461 69.8966 6.54069C69.171 5.30038 68.0232 4.9557 66.6575 5.09954C66.0438 5.17254 65.4674 5.42815 65.0054 5.83217C64.5435 6.23619 64.2179 6.76935 64.0723 7.36033C63.9047 8.02994 63.8204 8.71711 63.8212 9.40672C63.7973 13.1847 63.7973 16.9608 63.8212 20.7351C63.8212 21.2969 63.6833 21.4896 63.0901 21.4733C61.6637 21.4326 60.2345 21.4353 58.8109 21.4733C58.2591 21.4869 58.1377 21.3051 58.1404 20.7948C58.1597 16.9002 58.1404 13.0055 58.1404 9.11089C58.1404 8.19626 58.088 7.28434 57.5886 6.47013C56.9237 5.36009 55.7346 4.85799 54.2502 5.11311C52.9093 5.35466 52.0899 6.21501 51.7671 7.47704C51.621 8.09152 51.5534 8.7215 51.5657 9.35244C51.5473 13.1521 51.5473 16.9517 51.5657 20.7514C51.5657 21.3322 51.3891 21.4896 50.8152 21.4733C49.3695 21.4381 47.9238 21.4489 46.4753 21.4733C46.0338 21.4733 45.8876 21.3566 45.8876 20.9061C45.9005 14.7 45.9005 8.49209 45.8876 2.28237C45.8736 2.20146 45.8765 2.11859 45.8964 2.03887C45.9162 1.95915 45.9525 1.88428 46.0029 1.81889C46.0533 1.75351 46.1169 1.69901 46.1896 1.65875C46.2623 1.61849 46.3426 1.59335 46.4256 1.58486C47.5485 1.29174 48.6521 0.919921 49.7778 0.643089C50.3267 0.553915 50.8824 0.511238 51.4388 0.515529Z" fill="white"/>
<path d="M40.9399 11.0897C40.9067 17.4976 36.1033 22.0328 29.3989 21.9839C22.8627 21.9378 18.1807 17.3348 18.1641 11.0273C18.1448 4.88545 23.1304 -0.295651 30.2128 0.0436036C36.004 0.320436 40.9702 4.70904 40.9399 11.0897ZM35.019 13.0927C35.292 12.1884 35.3645 11.2369 35.2314 10.3027C35.1889 9.94526 35.1281 9.59018 35.0493 9.23877C34.7723 8.08559 34.1285 7.04946 33.2115 6.28114C32.2944 5.51282 31.1521 5.05239 29.9507 4.96687C28.7799 4.87131 27.6086 5.1432 26.6047 5.74347C25.6009 6.34374 24.8163 7.24151 24.3636 8.30785C23.9094 9.38425 23.7294 10.5535 23.8394 11.714C24.0795 15.3128 27.6083 17.8558 31.1288 16.8435C32.0498 16.5989 32.8913 16.1255 33.5726 15.4686C34.2539 14.8118 34.752 13.9936 35.019 13.0927Z" fill="white"/>
<path d="M93.9914 20.1843C92.2725 21.8127 90.2336 22.1357 88.0981 21.9539C85.1046 21.6988 82.6546 20.4829 81.4765 17.6114C79.821 13.6001 82.0614 9.44216 86.3517 8.38368C88.7658 7.79745 91.1248 7.8843 93.3982 8.96991C93.4693 8.99646 93.5421 9.01822 93.6162 9.03505C94.1873 7.00766 93.0009 5.21911 90.9289 4.93414C88.9534 4.66273 87.1021 5.12141 85.3032 5.86777C85.0942 5.98173 84.8731 6.07275 84.6438 6.13917C84.5511 6.15459 84.456 6.14917 84.3657 6.12332C84.2754 6.09747 84.1922 6.05185 84.1224 5.9899C83.8961 5.60451 83.6754 5.2164 83.4519 4.82015C83.2717 4.50531 83.1611 4.15661 83.1273 3.79683C83.0935 3.43706 83.1373 3.07433 83.2558 2.73234C83.3743 2.39035 83.5648 2.07682 83.8149 1.81224C84.0651 1.54765 84.3691 1.33797 84.7073 1.19691H84.7349C87.8553 -0.0569808 91.0668 -0.38538 94.3363 0.526537C97.2774 1.34075 99.1094 3.59612 99.239 6.64941C99.366 9.61043 99.3439 12.5769 99.3742 15.5406C99.388 17.2396 99.3742 18.9386 99.3742 20.6403C99.3742 21.4545 99.3742 21.4545 98.5686 21.4545C97.4429 21.4545 96.3145 21.4056 95.1943 21.4735C94.5018 21.5169 94.2066 21.2591 94.1266 20.6349C94.0907 20.4821 94.0456 20.3317 93.9914 20.1843ZM89.6928 17.606C90.0566 17.6822 90.4326 17.6822 90.7964 17.606C91.2762 17.519 91.7464 17.3872 92.2008 17.2124C92.6941 17.0239 93.1133 16.6852 93.3972 16.2458C93.6811 15.8064 93.8149 15.2893 93.7789 14.7698C93.7981 14.2522 93.6538 13.7415 93.3657 13.3079C93.0777 12.8744 92.6601 12.5393 92.1704 12.3489C91.577 12.0781 90.9322 11.9333 90.2781 11.9239C89.624 11.9146 88.9752 12.0409 88.374 12.2946C87.2704 12.7479 86.5972 13.5946 86.5972 14.8024C86.5972 16.0101 87.2566 16.8189 88.3575 17.245C88.7917 17.4015 89.2383 17.5222 89.6928 17.606Z" fill="white"/>
<path d="M110.906 2.58123C111.698 1.97599 112.363 1.32191 113.152 0.893093C116.537 -0.930742 122.29 -0.252231 123.462 5.68609C123.682 6.82892 123.795 7.98893 123.802 9.15192C123.843 13.0086 123.818 16.8625 123.818 20.7164V21.4139H118.195V20.7001C118.195 16.7865 118.195 12.872 118.195 8.9565C118.195 7.54792 117.798 6.32931 116.523 5.55581C114.261 4.17979 111.463 5.58566 111.083 8.26985C111.037 8.62262 111.015 8.9781 111.019 9.33375C111.019 13.1687 111.019 17.0036 111.019 20.8386C111.019 21.3407 110.865 21.4737 110.371 21.4655C108.884 21.4357 107.397 21.4411 105.909 21.4655C105.501 21.4655 105.358 21.3542 105.358 20.9227C105.369 14.6931 105.369 8.46617 105.358 2.24197C105.34 2.09602 105.381 1.94896 105.472 1.83263C105.564 1.71631 105.698 1.64008 105.846 1.62045C107.063 1.2812 108.274 0.928375 109.485 0.583692H109.546C110.718 0.334001 110.909 0.483273 110.909 1.63945L110.906 2.58123Z" fill="white"/>
<path d="M0.824219 2.95828V2.49146C3.54186 1.88623 6.12982 0.716483 9.0599 0.453221V3.09941C10.4808 1.11273 12.3321 0.0488281 14.8897 0.0488281V1.48727C14.8897 2.7113 14.8897 3.9299 14.8897 5.16208C14.8897 5.53661 14.7794 5.6696 14.3848 5.70488C12.5942 5.81616 11.0464 6.38339 10.1138 8.0281C9.57122 8.98169 9.28002 10.0538 9.26683 11.1465C9.22636 14.3455 9.21073 17.5453 9.21992 20.7461C9.21992 21.3079 9.07922 21.5006 8.48878 21.4843C7.06237 21.4436 5.63595 21.4463 4.20954 21.4843C3.65773 21.4979 3.5391 21.3269 3.54186 20.8112C3.56117 15.926 3.54186 11.0407 3.54186 6.1717C3.54186 5.3792 3.44805 4.55685 2.83555 4.03846C2.32513 3.57708 1.59675 3.35181 0.824219 2.95828Z" fill="white"/>
</g>
<defs>
<clipPath id="clip0_5377_5140">
<rect width="123" height="22" fill="white" transform="translate(0.824219)"/>
</clipPath>
</defs>
</svg>
