<svg width="118" height="22" viewBox="0 0 118 22" fill="none" xmlns="http://www.w3.org/2000/svg">
<path d="M7.10357 9.83732H13.3699V20.3021C11.5869 21.0599 9.66747 21.4438 7.73021 21.43C6.66637 21.4885 5.60546 21.2712 4.65031 20.7991C3.69516 20.327 2.87816 19.6162 2.2785 18.7355C1.02523 16.9183 0.335938 14.3491 0.335938 10.9653C0.335937 7.70677 1.0879 5.13757 2.52915 3.25767C3.97041 1.37777 6.0383 0.500488 8.67016 0.500488C10.2985 0.507848 11.8968 0.939823 13.3072 1.75375L12.1166 4.82426C11.1429 4.1977 10.0157 3.85087 8.85815 3.82164C8.1632 3.81167 7.47803 3.98621 6.87256 4.32748C6.26709 4.66875 5.76298 5.16451 5.41166 5.7642C4.51358 7.3685 4.07964 9.19105 4.1584 11.0279C4.1584 13.3465 4.47171 15.0384 5.09835 16.2916C5.72498 17.5449 6.60227 18.1089 7.73021 18.1089C8.36575 18.1182 8.9992 18.0337 9.61011 17.8582V13.1585H7.10357V9.83732Z" fill="white"/>
<path d="M16.4414 21.1166V0.750977H20.2639V17.8581H25.5276V21.1792L16.4414 21.1166Z" fill="white"/>
<path d="M37.5572 21.1169L36.3666 15.9785H31.0402L29.9123 21.1169H26.0898L31.1656 0.625977H36.304L41.3797 21.1169H37.5572ZM35.6773 12.5947L34.6121 7.83226C34.5494 7.51894 34.4241 6.82964 34.1734 5.63904C33.9228 4.44844 33.7974 3.69648 33.7348 3.3205C33.6094 4.13512 33.4841 5.01241 33.2961 5.95236C33.1081 6.89231 32.6068 9.08552 31.8549 12.532H35.6773V12.5947Z" fill="white"/>
<path d="M50.4662 21.1166L46.5811 3.75882H46.4558C46.6266 4.98372 46.7103 6.2192 46.7064 7.45595V21.1166H43.1973V0.750977H49.0249L52.5341 16.7928H52.6594L56.1059 0.750977H61.9963V21.1166H58.4244V7.33062C58.4263 6.15844 58.489 4.98715 58.6124 3.82148H58.4871L54.602 21.1792L50.4662 21.1166Z" fill="white"/>
<path d="M76.7231 21.1165H75.0312L67.3236 2.81887H67.1982C67.3236 4.07213 67.3862 5.3254 67.3862 6.45334V21.1165H66.0703V0.750977H67.8249L75.4698 18.8607H75.5325C75.4698 17.3568 75.4071 16.0408 75.4071 15.0382V0.750977H76.7231V21.1165Z" fill="white"/>
<path d="M88.6286 21.1165H81.2344V0.750977H88.6286V2.06691H82.613V9.83716H88.3153V11.1531H82.613V19.8633H88.6286V21.1165Z" fill="white"/>
<path d="M95.5845 21.1165H94.2059V2.06691H90.1328V0.750977H99.595V2.06691H95.5219L95.5845 21.1165Z" fill="white"/>
<path d="M102.102 21.1165V0.750977H103.48V21.1165H102.102Z" fill="white"/>
<path d="M113.694 1.75386C112.19 1.75386 110.937 2.56848 110.059 4.19773C109.182 5.82698 108.681 8.08285 108.681 10.9654C108.64 12.617 108.851 14.2652 109.307 15.8531C109.625 17.0583 110.251 18.1599 111.125 19.0489C111.476 19.4072 111.895 19.6916 112.358 19.8853C112.821 20.079 113.317 20.1781 113.819 20.1769C114.769 20.1967 115.711 20.004 116.576 19.6129V20.8662C115.688 21.3271 114.693 21.5434 113.694 21.4928C112.449 21.5095 111.243 21.0628 110.31 20.2395C109.243 19.2542 108.464 17.9982 108.054 16.6051C107.493 14.7785 107.218 12.8761 107.239 10.9654C107.239 7.70687 107.803 5.13768 108.994 3.32044C109.454 2.45964 110.141 1.74152 110.981 1.24431C111.82 0.747091 112.781 0.489847 113.756 0.500595C114.903 0.484671 116.031 0.788454 117.015 1.37788L116.388 2.56848C115.603 2.01081 114.657 1.72479 113.694 1.75386Z" fill="white"/>
</svg>
